<svg width="114" height="39" xmlns="http://www.w3.org/2000/svg"><g fill="#2D317C" fill-rule="evenodd"><path d="M16.314 27.018v4.09h1.587c1.345 0 2.126-.888 2.126-2.071 0-1.078-.673-2.019-2.261-2.019h-1.452zm5.057 11.059c-1.828-2.934-2.959-4.79-3.551-5.059h-1.506v5.059H14V25h3.848c3.336 0 4.6 1.777 4.6 3.741 0 1.561-.995 2.825-2.503 3.389v.027c.54.323 2.207 2.932 4.117 5.92h-2.691zM31.78 30.381c-.296-.807-.538-1.453-.673-1.964h-.026c-.135.511-.35 1.13-.673 1.964l-.996 2.718h3.39l-1.022-2.718zm3.041 7.749l-1.292-3.095h-4.844l-1.21 3.095H25L30.408 25h1.48l5.409 13.13h-2.476zM48.21 27.018h-4.896v3.579h4.842v1.99h-4.842v5.49H41V25h7.91zM52 38.076h2.313V25H52zM65.512 38.561c-3.66 0-6.512-2.555-6.512-6.592C59 27.989 61.772 25 66.158 25c1.479 0 2.528.244 3.658.701l-.026 2.206c-1.104-.592-2.261-.943-3.363-.943-3.525 0-5.005 2.397-5.005 4.843 0 2.935 2.045 4.817 4.493 4.817.754 0 1.426-.108 1.991-.269v-4.573h2.286v5.704c-1.076.592-2.663 1.075-4.68 1.075M83.523 36.947c-1.049 1.021-2.637 1.397-4.304 1.397-1.588 0-2.961-.349-3.875-1.182-.861-.78-1.344-1.939-1.344-3.498V25h2.311v8.636c0 .915.297 1.615.809 2.045.538.485 1.319.701 2.207.701 1.049 0 1.909-.216 2.473-.727.486-.432.727-1.076.727-1.938V25h2.314v8.393c0 1.642-.511 2.773-1.318 3.554M91.313 27.018v4.09H92.9c1.346 0 2.125-.888 2.125-2.071 0-1.078-.672-2.019-2.26-2.019h-1.452zm5.059 11.059c-1.83-2.934-2.96-4.79-3.552-5.059h-1.507v5.059H89V25h3.846c3.337 0 4.603 1.777 4.603 3.741 0 1.561-.996 2.825-2.504 3.389v.027c.538.323 2.206 2.932 4.116 5.92h-2.689zM107.78 30.381c-.296-.807-.538-1.453-.673-1.964h-.026c-.135.511-.35 1.13-.673 1.964l-.996 2.718h3.39l-1.022-2.718zm3.041 7.749l-1.292-3.095h-4.843l-1.212 3.095H101L106.408 25h1.48l5.409 13.13h-2.476zM0 25v2.018h4.035v11.058h2.314V27.018h3.848L10.76 25zM42.29 2.027C43.678 1.502 45.743.89 48.112.489A36.162 36.162 0 0 1 54.028 0c3.837 0 7.455.67 11.321 2.015.177.068.295.29.295.493a.52.52 0 0 1-.29.443c-.106.052-1.454.618-3.252 2.084a19.985 19.985 0 0 0-3.415 3.541c-.72.984-2.87 3.612-3.962 9.199-.295 1.21-.444 3.913-.438 5.004 0 .242-.233.378-.47.376-.234-.002-.46-.139-.46-.373 0-.051.02-1.11-.106-2.554-.11-1.285-.234-1.928-.33-2.45a24.826 24.826 0 0 0-.528-2.282c-.556-1.958-1.603-4.586-3.432-6.926-.79-1.013-1.42-1.864-3.397-3.525-1.122-.943-2.694-1.859-3.223-2.094-.257-.114-.344-.29-.341-.458.004-.221.163-.429.29-.466"/></g></svg>